<svg width="67" height="67" viewBox="0 0 67 67" fill="none" xmlns="http://www.w3.org/2000/svg">
<rect width="67" height="67" rx="16" fill="#27AE60"/>
<path d="M10.7323 32.1845C9.75591 33.1887 9.75591 34.8194 10.7323 35.8235L25.7294 51.2469C26.7057 52.251 28.2914 52.251 29.2677 51.2469C30.2441 50.2428 30.2441 48.6121 29.2677 47.6079L16.0359 34L29.2599 20.3921C30.2363 19.3879 30.2363 17.7572 29.2599 16.7531C28.2835 15.749 26.6979 15.749 25.7215 16.7531L10.7245 32.1765L10.7323 32.1845Z" fill="#D9D9D9"/>
<path d="M58.2677 32.1845C59.2441 33.1887 59.2441 34.8194 58.2677 35.8235L43.2707 51.2469C42.2943 52.251 40.7087 52.251 39.7323 51.2469C38.7559 50.2428 38.7559 48.6121 39.7323 47.6079L52.9641 34L39.7401 20.3921C38.7637 19.3879 38.7637 17.7572 39.7401 16.7531C40.7165 15.749 42.3021 15.749 43.2785 16.7531L58.2755 32.1765L58.2677 32.1845Z" fill="#D9D9D9"/>
</svg>
