<svg width="67" height="67" viewBox="0 0 67 67" fill="none" xmlns="http://www.w3.org/2000/svg">
<rect width="67" height="67" rx="16" fill="#EB5757"/>
<path d="M51 21.625V25C51 28.1078 42.9402 30.625 33 30.625C23.0598 30.625 15 28.1078 15 25V21.625C15 18.5172 23.0598 16 33 16C42.9402 16 51 18.5172 51 21.625ZM46.5964 31.0961C48.2679 30.5758 49.8027 29.9078 51 29.0852V36.25C51 39.3578 42.9402 41.875 33 41.875C23.0598 41.875 15 39.3578 15 36.25V29.0852C16.1973 29.9148 17.7321 30.5758 19.4036 31.0961C23.0116 32.2211 27.817 32.875 33 32.875C38.183 32.875 42.9884 32.2211 46.5964 31.0961ZM15 40.3352C16.1973 41.1648 17.7321 41.8258 19.4036 42.3461C23.0116 43.4711 27.817 44.125 33 44.125C38.183 44.125 42.9884 43.4711 46.5964 42.3461C48.2679 41.8258 49.8027 41.1578 51 40.3352V46.375C51 49.4828 42.9402 52 33 52C23.0598 52 15 49.4828 15 46.375V40.3352Z" fill="#D9D9D9"/>
</svg>
