<svg width="67" height="67" viewBox="0 0 67 67" fill="none" xmlns="http://www.w3.org/2000/svg">
<rect width="67" height="67" rx="16" fill="#2D9CDB"/>
<path d="M40.5296 16.3197L37.1228 19.7263L46.2734 28.8761L49.6802 25.4696C51.4399 23.71 51.4399 20.8594 49.6802 19.0998L46.9069 16.3197C45.1471 14.5601 42.2964 14.5601 40.5367 16.3197H40.5296ZM35.532 21.3169L19.1243 37.7304C18.3923 38.4624 17.8573 39.3703 17.5617 40.3627L15.0699 48.8299C14.8939 49.4281 15.0558 50.0686 15.4922 50.505C15.9286 50.9414 16.5692 51.1033 17.1605 50.9343L25.6283 48.4428C26.6207 48.1472 27.5288 47.6122 28.2608 46.8802L44.6826 30.4668L35.532 21.3169Z" fill="#D9D9D9"/>
</svg>
